<?xml version="1.0" encoding="UTF-8"?>
<svg width="16px" height="16px" viewBox="0 0 16 16" version="1.1" xmlns="http://www.w3.org/2000/svg" xmlns:xlink="http://www.w3.org/1999/xlink">
    <!-- Generator: Sketch 48.2 (47327) - http://www.bohemiancoding.com/sketch -->
    <title>settings_icon</title>
    <desc>Created with Sketch.</desc>
    <defs></defs>
    <g id="Page-1" stroke="none" stroke-width="1" fill="none" fill-rule="evenodd">
        <g id="settings_icon" fill="#000000">
            <path d="M8.68611132,1.03373159 C8.22980369,0.988756137 7.77018086,0.988756137 7.31387323,1.03373159 L7.10769711,2.11731538 C6.67088657,2.18354212 6.2428161,2.29822179 5.83139891,2.45926791 L5.11104984,1.62397642 C4.6934041,1.81322879 4.2953559,2.04297452 3.9226547,2.31004523 L4.28588169,3.35159012 C3.94072216,3.62739318 3.62735455,3.94075307 3.35157467,4.28587397 L2.31006842,3.92267016 C2.0429977,4.29537909 1.81318242,4.69343501 1.62395324,5.11104211 L2.45926791,5.8314221 C2.29824497,6.24284701 2.18354212,6.67088657 2.11728447,7.10773574 L1.0337084,7.31388868 C0.988763865,7.77019631 0.988763865,8.22981914 1.0337084,8.68612677 L2.11728447,8.89230289 C2.18354212,9.32911343 2.29824497,9.7571839 2.45926791,10.1686011 L1.62395324,10.8889502 C1.81318242,11.3065959 2.0429977,11.7046441 2.31006842,12.0773453 L3.35157467,11.7141183 C3.62735455,12.0592778 3.94072216,12.3726455 4.28588169,12.6484253 L3.9226547,13.6899316 C4.2953559,13.9570023 4.6934041,14.1868176 5.11104984,14.3760468 L5.83139891,13.5407321 C6.2428161,13.701755 6.67088657,13.8164579 7.10769711,13.8827155 L7.31387323,14.9662916 C7.77018086,15.0112361 8.22980369,15.0112361 8.68611132,14.9662916 L8.89226426,13.8827155 C9.32911343,13.8164579 9.75715299,13.701755 10.1685779,13.5407321 L10.8889579,14.3760468 C11.306565,14.1868176 11.7046209,13.9570023 12.0773298,13.6899316 L11.714126,12.6484253 C12.0592469,12.3726455 12.3726068,12.0592778 12.6484099,11.7141183 L13.6899548,12.0773453 C13.9570255,11.7046441 14.1867712,11.3065959 14.3760236,10.8889502 L13.5407321,10.1686011 C13.7017782,9.7571839 13.8164579,9.32911343 13.8826846,8.89230289 L14.9662684,8.68612677 C15.0112439,8.22981914 15.0112439,7.77019631 14.9662684,7.31388868 L13.8826846,7.10773574 C13.8164579,6.67088657 13.7017782,6.24284701 13.5407321,5.8314221 L14.3760236,5.11104211 C14.1867712,4.69343501 13.9570255,4.29537909 13.6899548,3.92267016 L12.6484099,4.28587397 C12.3726068,3.94075307 12.0592469,3.62739318 11.714126,3.35159012 L12.0773298,2.31004523 C11.7046209,2.04297452 11.306565,1.81322879 10.8889579,1.62397642 L10.1685779,2.45926791 C9.75715299,2.29822179 9.32911343,2.18354212 8.89226426,2.11731538 L8.68611132,1.03373159 Z M7.99999614,6.60002318 C8.77263883,6.60002318 9.39997682,7.22736117 9.39997682,8.00000386 C9.39997682,8.7726852 8.77263883,9.40000773 7.99999614,9.40000773 C7.2273148,9.40000773 6.59999227,8.7726852 6.59999227,8.00000386 C6.59999227,7.22736117 7.2273148,6.60002318 7.99999614,6.60002318 Z" id="settings"></path>
        </g>
    </g>
</svg>