<?xml version="1.0" encoding="UTF-8"?>
<svg width="16px" height="15px" viewBox="0 0 16 15" version="1.1" xmlns="http://www.w3.org/2000/svg" xmlns:xlink="http://www.w3.org/1999/xlink">
    <!-- Generator: Sketch 43.2 (39069) - http://www.bohemiancoding.com/sketch -->
    <title>commit push</title>
    <desc>Created with Sketch.</desc>
    <defs></defs>
    <g id="Page-1" stroke="none" stroke-width="1" fill="none" fill-rule="evenodd">
        <g id="Artboard" transform="translate(-85.000000, -85.000000)" stroke="#000000">
            <g id="commit-push" transform="translate(86.000000, 85.000000)">
                <path d="M7.81066187,0.529471629 C7.81066187,-0.181518688 9.81066187,-0.15167958 9.81066187,0.529471629 C9.81066187,1.21062284 9.81066187,9.13658361 9.81066187,9.13658361 L8.81066187,11.6139651 L7.81066187,9.13658361 C7.81066187,9.13658361 7.81066187,0.529471629 7.81066187,0.529471629 Z" id="Rectangle-Copy" transform="translate(8.810662, 5.810662) rotate(45.000000) translate(-8.810662, -5.810662) "></path>
                <polyline id="push-icon" transform="translate(7.000000, 7.000000) rotate(-90.000000) translate(-7.000000, -7.000000) " points="11.6151428 9.38485718 14 7 7 0 7 3.5 7 3.5 0 3.5 0 10.5 7 10.5 7 14 8.80871582 12.1912842"></polyline>
            </g>
        </g>
    </g>
</svg>