<?xml version="1.0" encoding="UTF-8"?>
<svg width="16px" height="16px" viewBox="0 0 16 16" version="1.1" xmlns="http://www.w3.org/2000/svg" xmlns:xlink="http://www.w3.org/1999/xlink">
    <!-- Generator: Sketch 44.1 (41455) - http://www.bohemiancoding.com/sketch -->
    <title>Artboard</title>
    <desc>Created with Sketch.</desc>
    <defs></defs>
    <g id="Page-1" stroke="none" stroke-width="1" fill="none" fill-rule="evenodd">
        <g id="Artboard" transform="translate(-61.000000, -86.000000)" stroke="#000000">
            <g id="commit" transform="translate(63.000000, 88.000000)">
                <path d="M7.59951308,1.41493336 C6.95258714,1.1475374 6.24352317,1 5.5,1 C2.46243388,1 0,3.46243388 0,6.5 C0,9.53756612 2.46243388,12 5.5,12 L5.5,12 C8.53756612,12 11,9.53756612 11,6.5 C11,5.50696911 10.7368286,4.57540517 10.2764265,3.77124873" id="Oval"></path>
                <path d="M5.81066187,-0.470528371 C5.81066187,-1.18151869 7.81066187,-1.15167958 7.81066187,-0.470528371 C7.81066187,0.210622837 7.81066187,8.13658361 7.81066187,8.13658361 L6.81066187,10.6139651 L5.81066187,8.13658361 C5.81066187,8.13658361 5.81066187,-0.470528371 5.81066187,-0.470528371 Z" id="Rectangle" transform="translate(6.810662, 4.810662) rotate(45.000000) translate(-6.810662, -4.810662) "></path>
            </g>
        </g>
    </g>
</svg>