<?xml version="1.0" encoding="UTF-8"?>
<svg width="16px" height="16px" viewBox="0 0 16 16" version="1.1" xmlns="http://www.w3.org/2000/svg" xmlns:xlink="http://www.w3.org/1999/xlink">
    <!-- Generator: Sketch 46.2 (44496) - http://www.bohemiancoding.com/sketch -->
    <title>general</title>
    <desc>Created with Sketch.</desc>
    <defs></defs>
    <g id="Page-1" stroke="none" stroke-width="1" fill="none" fill-rule="evenodd">
        <g id="general" stroke="#000000">
            <g id="general_pref_icon" transform="translate(1.000000, 1.000000)">
                <path d="M7.68612057,0.0336667357 C7.22978223,-0.0112222452 6.77024632,-0.0112222452 6.31390798,0.0336667357 L6.10766498,1.11733127 C5.67085464,1.18355131 5.2428376,1.29829364 4.83137938,1.4593314 L4.11101345,0.624021298 C3.6933885,0.813187917 3.29540574,1.04302419 2.92266091,1.31013121 L3.28592724,2.35160245 C2.94070432,2.62738253 2.62734286,2.94078497 2.3515528,3.28594959 L1.31005989,2.92261841 C1.04294894,3.29532588 0.813180987,3.69346653 0.623953603,4.11106297 L1.4593177,4.83139633 C1.29829742,5.24278099 1.18352764,5.67092576 1.11729235,6.1077436 L0.0336600914,6.31390474 C-0.0112200305,6.77017838 -0.0112200305,7.22985092 0.0336600914,7.68612456 L1.11729235,7.8922857 C1.18352764,8.32910354 1.29829742,8.75713111 1.4593177,9.16863297 L0.623953603,9.88896633 C0.813180987,10.3065628 1.04294894,10.7045862 1.31005989,11.0772937 L2.3515528,10.7140797 C2.62734286,11.0592443 2.94070432,11.3726468 3.28592724,11.6484269 L2.92266091,12.6898981 C3.29540574,12.9570051 3.6933885,13.1868414 4.11101345,13.376008 L4.83137938,12.5406979 C5.2428376,12.7017357 5.67085464,12.816478 6.10766498,12.882698 L6.31390798,13.9662454 C6.77024632,14.0112515 7.22978223,14.0112515 7.68612057,13.9662454 L7.89236357,12.882698 C8.32917391,12.816478 8.75719095,12.7017357 9.16864917,12.5406979 L9.8890151,13.376008 C10.30664,13.1868414 10.7046228,12.9570051 11.0773676,12.6898981 L10.7141013,11.6484269 C11.0593242,11.3726468 11.3726857,11.0592443 11.6484758,10.7140797 L12.6899687,11.0772937 C12.9569654,10.7045862 13.1868476,10.3065628 13.3760749,9.88896633 L12.5407108,9.16863297 C12.7017311,8.75713111 12.8165009,8.32910354 12.8827362,7.8922857 L13.9662543,7.68612456 C14.0112486,7.22985092 14.0112486,6.77017838 13.9662543,6.31390474 L12.8827362,6.1077436 C12.8165009,5.67092576 12.7017311,5.24278099 12.5407108,4.83139633 L13.3760749,4.11106297 C13.1868476,3.69346653 12.9569654,3.29532588 12.6899687,2.92261841 L11.6484758,3.28594959 C11.3726857,2.94078497 11.0593242,2.62738253 10.7141013,2.35160245 L11.0773676,1.31013121 C10.7046228,1.04302419 10.30664,0.813187917 9.8890151,0.624021298 L9.16864917,1.4593314 C8.75719095,1.29829364 8.32917391,1.18355131 7.89236357,1.11733127 L7.68612057,0.0336667357 Z M7.00001427,5.60001758 C7.77268324,5.60001758 8.39997716,6.22729128 8.39997716,7.00001465 C8.39997716,7.77262082 7.77268324,8.40001172 7.00001427,8.40001172 C6.22734531,8.40001172 5.60005139,7.77262082 5.60005139,7.00001465 C5.60005139,6.22729128 6.22734531,5.60001758 7.00001427,5.60001758 Z" id="Shape"></path>
            </g>
        </g>
    </g>
</svg>