<?xml version="1.0" encoding="UTF-8" standalone="no"?><!DOCTYPE svg PUBLIC "-//W3C//DTD SVG 1.1//EN" "http://www.w3.org/Graphics/SVG/1.1/DTD/svg11.dtd"><svg width="100%" height="100%" viewBox="0 0 27 27" version="1.1" xmlns="http://www.w3.org/2000/svg" xmlns:xlink="http://www.w3.org/1999/xlink" xml:space="preserve" style="fill-rule:evenodd;clip-rule:evenodd;stroke-linecap:round;stroke-miterlimit:1;"><path d="M14.237,1.118c-0.782,-0.077 -1.57,-0.077 -2.353,0l-0.353,1.858c-0.749,0.114 -1.483,0.31 -2.188,0.586l-1.235,-1.432c-0.716,0.325 -1.398,0.719 -2.037,1.176l0.623,1.786c-0.592,0.473 -1.129,1.01 -1.602,1.602l-1.786,-0.623c-0.457,0.639 -0.851,1.321 -1.176,2.037l1.432,1.235c-0.276,0.705 -0.472,1.439 -0.586,2.188l-1.858,0.353c-0.077,0.783 -0.077,1.571 0,2.353l1.858,0.353c0.114,0.749 0.31,1.483 0.586,2.188l-1.432,1.235c0.325,0.716 0.719,1.398 1.176,2.037l1.786,-0.622c0.473,0.591 1.01,1.129 1.602,1.601l-0.623,1.786c0.639,0.458 1.321,0.852 2.037,1.176l1.235,-1.432c0.705,0.276 1.439,0.473 2.188,0.586l0.353,1.858c0.783,0.077 1.571,0.077 2.353,0l0.353,-1.858c0.749,-0.113 1.483,-0.31 2.188,-0.586l1.235,1.432c0.716,-0.324 1.398,-0.718 2.037,-1.176l-0.622,-1.786c0.591,-0.472 1.129,-1.01 1.601,-1.601l1.786,0.622c0.458,-0.639 0.852,-1.321 1.176,-2.037l-1.432,-1.235c0.276,-0.705 0.473,-1.439 0.586,-2.188l1.858,-0.353c0.077,-0.782 0.077,-1.57 0,-2.353l-1.858,-0.353c-0.113,-0.749 -0.31,-1.483 -0.586,-2.188l1.432,-1.235c-0.324,-0.716 -0.718,-1.398 -1.176,-2.037l-1.786,0.623c-0.472,-0.592 -1.01,-1.129 -1.601,-1.602l0.622,-1.786c-0.639,-0.457 -1.321,-0.851 -2.037,-1.176l-1.235,1.432c-0.705,-0.276 -1.439,-0.472 -2.188,-0.586l-0.353,-1.858Zm-1.176,9.543c1.324,0 2.4,1.075 2.4,2.4c0,1.324 -1.076,2.4 -2.4,2.4c-1.325,0 -2.4,-1.076 -2.4,-2.4c0,-1.325 1.075,-2.4 2.4,-2.4Z" style="fill:none;stroke:#000;stroke-width:1px;"/></svg>