<?xml version="1.0" encoding="UTF-8"?>
<svg width="16px" height="15px" viewBox="0 0 16 15" version="1.1" xmlns="http://www.w3.org/2000/svg" xmlns:xlink="http://www.w3.org/1999/xlink">
    <!-- Generator: Sketch 46.2 (44496) - http://www.bohemiancoding.com/sketch -->
    <title>ui</title>
    <desc>Created with Sketch.</desc>
    <defs></defs>
    <g id="Page-1" stroke="none" stroke-width="1" fill="none" fill-rule="evenodd" stroke-linecap="round" stroke-linejoin="round">
        <g id="ui" stroke="#000000">
            <g id="Page-1" transform="translate(1.000000, 1.000000)">
                <path d="M13,3.25 C13,1.45628437 11.5437156,0 9.75,0 L3.25,0 C1.45628437,0 0,1.45628437 0,3.25 L0,9.75 C0,11.5437156 1.45628437,13 3.25,13 L9.75,13 C11.5437156,13 13,11.5437156 13,9.75 L13,3.25 Z" id="Stroke-1"></path>
                <path d="M0.5,6 L13,6" id="Stroke-2"></path>
                <path d="M2,2 C2.5519,2 3,2.44805 3,3 C3,3.5519 2.5519,4 2,4 C1.4481,4 1,3.5519 1,3 C1,2.44805 1.4481,2 2,2 Z" id="Stroke-3"></path>
                <path d="M5,2 C5.5519,2 6,2.44805 6,3 C6,3.5519 5.5519,4 5,4 C4.4481,4 4,3.5519 4,3 C4,2.44805 4.4481,2 5,2 Z" id="Stroke-4"></path>
                <path d="M8,2 C8.5519,2 9,2.44805 9,3 C9,3.5519 8.5519,4 8,4 C7.4481,4 7,3.5519 7,3 C7,2.44805 7.4481,2 8,2 Z" id="Stroke-5"></path>
            </g>
        </g>
    </g>
</svg>