<?xml version="1.0" encoding="UTF-8"?>
<svg width="16px" height="16px" viewBox="0 0 16 16" version="1.1" xmlns="http://www.w3.org/2000/svg" xmlns:xlink="http://www.w3.org/1999/xlink">
    <!-- Generator: Sketch 48.2 (47327) - http://www.bohemiancoding.com/sketch -->
    <title>ui</title>
    <desc>Created with Sketch.</desc>
    <defs></defs>
    <g id="Page-1" stroke="none" stroke-width="1" fill="none" fill-rule="evenodd" stroke-linecap="round" stroke-linejoin="round">
        <g id="ui" stroke="#000000">
            <g id="Page-1" transform="translate(1.000000, 1.000000)">
                <path d="M14,3.5 C14,1.56830625 12.4316938,0 10.5,0 L3.5,0 C1.56830625,0 0,1.56830625 0,3.5 L0,10.5 C0,12.4316938 1.56830625,14 3.5,14 L10.5,14 C12.4316938,14 14,12.4316938 14,10.5 L14,3.5 Z" id="Stroke-1"></path>
                <path d="M0.538461538,5.46153846 L14,5.46153846" id="Stroke-2"></path>
                <path d="M2.15384615,2.15384615 C2.7482,2.15384615 3.23076923,2.63636154 3.23076923,3.23076923 C3.23076923,3.82512308 2.7482,4.30769231 2.15384615,4.30769231 C1.55949231,4.30769231 1.07692308,3.82512308 1.07692308,3.23076923 C1.07692308,2.63636154 1.55949231,2.15384615 2.15384615,2.15384615 Z" id="Stroke-3"></path>
                <path d="M5.38461538,2.15384615 C5.97896923,2.15384615 6.46153846,2.63636154 6.46153846,3.23076923 C6.46153846,3.82512308 5.97896923,4.30769231 5.38461538,4.30769231 C4.79026154,4.30769231 4.30769231,3.82512308 4.30769231,3.23076923 C4.30769231,2.63636154 4.79026154,2.15384615 5.38461538,2.15384615 Z" id="Stroke-4"></path>
                <path d="M8.61538462,2.15384615 C9.20973846,2.15384615 9.69230769,2.63636154 9.69230769,3.23076923 C9.69230769,3.82512308 9.20973846,4.30769231 8.61538462,4.30769231 C8.02103077,4.30769231 7.53846154,3.82512308 7.53846154,3.23076923 C7.53846154,2.63636154 8.02103077,2.15384615 8.61538462,2.15384615 Z" id="Stroke-5"></path>
            </g>
        </g>
    </g>
</svg>